<svg width="19" height="19" viewBox="0 0 19 19" fill="none" xmlns="http://www.w3.org/2000/svg">
<path d="M12.6423 0.231416C12.1123 -0.12455 11.4803 0.510961 11.8333 1.04391L12.4633 1.99416C12.7189 2.37945 12.8553 2.83221 12.8553 3.29534C12.8553 3.75848 12.7189 4.21124 12.4633 4.59653L11.8333 5.54678C11.4803 6.07973 12.1133 6.71524 12.6433 6.35927L13.5873 5.72577C13.9705 5.46879 14.4207 5.33164 14.8813 5.33164C15.3419 5.33164 15.7922 5.46879 16.1753 5.72577L17.1203 6.35927C17.6503 6.71524 18.2823 6.07973 17.9283 5.54678L17.2983 4.59653C17.0428 4.21124 16.9064 3.75848 16.9064 3.29534C16.9064 2.83221 17.0428 2.37945 17.2983 1.99416L17.9283 1.04391C18.2823 0.510961 17.6503 -0.12455 17.1193 0.231416L16.1753 0.864917C15.7922 1.1219 15.3419 1.25905 14.8813 1.25905C14.4207 1.25905 13.9705 1.1219 13.5873 0.864917L12.6423 0.231416Z" fill="#F8F8F8"/>
<path d="M17.9893 12.5213C18.1933 12.0326 17.6103 11.6163 17.1213 11.8335C16.1439 12.265 15.0878 12.4869 14.0203 12.4851C9.83531 12.4851 6.44331 9.14267 6.44331 5.01889C6.44178 3.62654 6.83516 2.26263 7.57731 1.08717C7.86131 0.636678 7.52031 0.0132337 7.00031 0.145967C2.99131 1.17465 0.031311 4.7665 0.031311 9.0391C0.031311 14.1141 4.20631 18.2279 9.35731 18.2279C13.2573 18.2279 16.5973 15.8698 17.9893 12.5213Z" fill="#F8F8F8"/>
</svg>
