<svg width="19" height="20" viewBox="0 0 19 20" fill="none" xmlns="http://www.w3.org/2000/svg">
<path d="M13.1415 1.04807C12.6115 0.6921 11.9795 1.32761 12.3325 1.86056L12.9625 2.81081C13.2181 3.1961 13.3545 3.64886 13.3545 4.11199C13.3545 4.57513 13.2181 5.02789 12.9625 5.41318L12.3325 6.36343C11.9795 6.89638 12.6125 7.53189 13.1425 7.17592L14.0865 6.54242C14.4697 6.28544 14.92 6.14829 15.3805 6.14829C15.8411 6.14829 16.2914 6.28544 16.6745 6.54242L17.6195 7.17592C18.1495 7.53189 18.7815 6.89638 18.4275 6.36343L17.7975 5.41318C17.542 5.02789 17.4056 4.57513 17.4056 4.11199C17.4056 3.64886 17.542 3.1961 17.7975 2.81081L18.4275 1.86056C18.7815 1.32761 18.1495 0.6921 17.6185 1.04807L16.6745 1.68157C16.2914 1.93855 15.8411 2.0757 15.3805 2.0757C14.92 2.0757 14.4697 1.93855 14.0865 1.68157L13.1415 1.04807Z" fill="#222325"/>
<path d="M18.4885 13.338C18.6925 12.8493 18.1095 12.433 17.6205 12.6502C16.6431 13.0816 15.587 13.3035 14.5195 13.3018C10.3345 13.3018 6.94252 9.95932 6.94252 5.83554C6.94098 4.44319 7.33437 3.07928 8.07652 1.90382C8.36052 1.45333 8.01952 0.829884 7.49952 0.962617C3.49052 1.9913 0.530518 5.58315 0.530518 9.85575C0.530518 14.9308 4.70552 19.0445 9.85652 19.0445C13.7565 19.0445 17.0965 16.6865 18.4885 13.338Z" fill="#222325"/>
</svg>
