<svg width="38" height="28" viewBox="0 0 38 28" fill="none" xmlns="http://www.w3.org/2000/svg">
<path id="Vector" d="M0 1.4C0 0.626801 0.626802 0 1.4 0H36.6C37.3732 0 38 0.626801 38 1.4C38 2.1732 37.3732 2.8 36.6 2.8H1.4C0.626804 2.8 0 2.1732 0 1.4ZM0 26.6C0 25.8268 0.626802 25.2 1.4 25.2H36.6C37.3732 25.2 38 25.8268 38 26.6C38 27.3732 37.3732 28 36.6 28H1.4C0.626804 28 0 27.3732 0 26.6ZM0 9.8C0 9.0268 0.626802 8.4 1.4 8.4H36.6C37.3732 8.4 38 9.0268 38 9.8C38 10.5732 37.3732 11.2 36.6 11.2H1.4C0.626804 11.2 0 10.5732 0 9.8ZM0 18.2C0 17.4268 0.626802 16.8 1.4 16.8H36.6C37.3732 16.8 38 17.4268 38 18.2C38 18.9732 37.3732 19.6 36.6 19.6H1.4C0.626804 19.6 0 18.9732 0 18.2Z" fill="#F6F6F6"/>
</svg>
