<svg width="23" height="24" viewBox="0 0 23 24" fill="none" xmlns="http://www.w3.org/2000/svg">
<path d="M16.6769 15.1882C16.5937 15.1035 16.5716 14.9712 16.6392 14.8737C17.9138 13.0364 18.4787 10.7917 18.2229 8.56143C17.959 6.26003 16.8406 4.14371 15.0915 2.63587C13.3425 1.12803 11.0917 0.339865 8.78959 0.429063C6.48745 0.518262 4.30368 1.47824 2.6752 3.11695C1.04671 4.75566 0.0935933 6.95224 0.00653486 9.26724C-0.0805236 11.5822 0.704895 13.8449 2.20566 15.6026C3.70642 17.3603 5.81185 18.4834 8.10072 18.7472C10.3893 19.0109 12.6925 18.3961 14.5497 17.0258C14.55 17.0256 14.5498 17.0253 14.5496 17.0253C14.5493 17.0253 14.5492 17.0255 14.5493 17.0257C14.5914 17.0821 14.6363 17.1357 14.6868 17.1879L20.1015 22.6326C20.3652 22.898 20.7229 23.0471 21.096 23.0472C21.4691 23.0474 21.8269 22.8985 22.0908 22.6333C22.3547 22.3681 22.503 22.0084 22.5032 21.6332C22.5033 21.2581 22.3552 20.8983 22.0915 20.6329L16.6769 15.1882ZM16.878 9.61198C16.878 10.6334 16.6779 11.6449 16.2892 12.5885C15.9005 13.5322 15.3307 14.3897 14.6124 15.112C13.8941 15.8342 13.0414 16.4072 12.103 16.798C11.1645 17.1889 10.1586 17.3901 9.14283 17.3901C8.12703 17.3901 7.12118 17.1889 6.18271 16.798C5.24423 16.4072 4.39151 15.8342 3.67324 15.112C2.95496 14.3897 2.38519 13.5322 1.99646 12.5885C1.60773 11.6449 1.40766 10.6334 1.40766 9.61198C1.40766 7.54908 2.22261 5.57068 3.67324 4.112C5.12386 2.65331 7.09134 1.83383 9.14283 1.83383C11.1943 1.83383 13.1618 2.65331 14.6124 4.112C16.063 5.57068 16.878 7.54908 16.878 9.61198Z" fill="#FAFAFA"/>
</svg>
